HIERARCHY
ROOT hip
{
	OFFSET 0.000000 0.000000 0.000000 
	CHANNELS 6 Xposition Yposition Zposition Xrotation Zrotation Yrotation
	JOINT abdomen
	{
		OFFSET 0.000000 3.402643 0.000000 
		CHANNELS 3 Xrotation Zrotation Yrotation
		JOINT chest
		{
			OFFSET 0.000000 8.438565 -0.680529 
			CHANNELS 3 Xrotation Zrotation Yrotation
			JOINT neck
			{
				OFFSET 0.000000 10.207942 -0.272212 
				CHANNELS 3 Xrotation Zrotation Yrotation
				JOINT head
				{
					OFFSET 0.000000 3.130431 0.000000 
					CHANNELS 3 Xrotation Zrotation Yrotation
					End Site
					{
						OFFSET 0.000000 3.130435 0.000000 
					}
				}
			}
			JOINT lCollar
			{
				OFFSET 3.470700 6.669187 -0.816635 
				CHANNELS 3 Yrotation Zrotation Xrotation
				JOINT lShldr
				{
					OFFSET 3.198488 0.000000 0.000000 
					CHANNELS 3 Zrotation Yrotation Xrotation
					JOINT lForeArm
					{
						OFFSET 10.139888 0.000000 0.000000 
						CHANNELS 3 Yrotation Zrotation Xrotation
						JOINT lHand
						{
							OFFSET 8.370511 0.000000 0.000000 
							CHANNELS 3 Zrotation Yrotation Xrotation
							End Site
							{
								OFFSET 4.083176 0.000000 0.000000 
							}
						}
					}
				}
			}
			JOINT rCollar
			{
				OFFSET -3.470700 6.669187 -0.816635 
				CHANNELS 3 Yrotation Zrotation Xrotation
				JOINT rShldr
				{
					OFFSET -3.198488 0.000000 0.000000 
					CHANNELS 3 Zrotation Yrotation Xrotation
					JOINT rForeArm
					{
						OFFSET -10.139888 0.000000 0.000000 
						CHANNELS 3 Yrotation Zrotation Xrotation
						JOINT rHand
						{
							OFFSET -8.370511 0.000000 0.000000 
							CHANNELS 3 Zrotation Yrotation Xrotation
							End Site
							{
								OFFSET -4.083176 0.000000 0.000000 
							}
						}
					}
				}
			}
		}
	}
	JOINT lThigh
	{
		OFFSET 5.308129 -1.633274 1.361059 
		CHANNELS 3 Xrotation Zrotation Yrotation
		JOINT lShin
		{
			OFFSET -2.041588 -20.007561 0.000000 
			CHANNELS 3 Xrotation Zrotation Yrotation
			JOINT lFoot
			{
				OFFSET 0.000000 -19.190928 -1.224953 
				CHANNELS 3 Xrotation Yrotation Zrotation
				End Site
				{
					OFFSET 0.000000 -2.449906 4.627600 
				}
			}
		}
	}
	JOINT rThigh
	{
		OFFSET -5.308129 -1.633274 1.361059 
		CHANNELS 3 Xrotation Zrotation Yrotation
		JOINT rShin
		{
			OFFSET 2.041588 -20.007561 0.000000 
			CHANNELS 3 Xrotation Zrotation Yrotation
			JOINT rFoot
			{
				OFFSET 0.000000 -19.190928 -1.224953 
				CHANNELS 3 Xrotation Yrotation Zrotation
				End Site
				{
					OFFSET 0.000000 -2.449906 4.627600 
				}
			}
		}
	}
}
MOTION
Frames: 20
Frame Time: 0.033333
-24.220421 49.987183 -13.895350 -4.023887 -2.049809 22.994055 0.000000 0.000000 0.000000 1.894514 1.803444 -3.409894 0.170118 1.810508 -12.642957 15.956258 -0.656957 -8.389236 -10.412749 4.103193 2.736362 17.016935 -58.531445 -83.314011 -83.351204 1.052803 33.601334 17.714844 4.393249 -3.357235 7.125465 4.996958 1.759734 -32.590809 10.435979 -74.714958 62.226952 2.725687 16.524298 -36.312378 -2.058291 -3.918144 11.590658 7.548968 10.061533 5.661845 -2.214685 19.822954 -11.618994 0.087328 -0.629863 -0.937246 -6.651618 -5.392041 -1.156510 2.415551 -10.494776 6.190814 -0.038996 0.448126 
-24.309446 50.018448 -13.711140 -3.952600 -2.183361 23.621428 0.000000 0.000000 0.000000 1.715395 1.822810 -3.478218 0.077023 1.877210 -12.643580 15.838370 -0.386426 -8.408406 -10.793623 4.302125 2.618198 15.029949 -58.675259 -80.261406 -83.055794 1.229794 34.330902 17.383793 4.507287 -3.349703 8.101303 6.113774 1.438085 -33.052086 9.706797 -72.462532 60.009079 2.184771 15.521760 -36.168095 -1.716239 -4.032793 11.526340 7.829151 10.110324 5.620303 -2.009198 19.032434 -11.639676 0.079686 -0.449027 -0.722638 -6.461517 -5.378421 -1.236638 2.486288 -11.302190 6.005139 -0.004481 0.326267 
-24.362835 50.037167 -13.532161 -3.936064 -2.262900 24.189972 0.000000 0.000000 0.000000 1.619068 1.939701 -3.517575 -0.119484 1.801254 -12.603913 15.602591 -0.512079 -8.359736 -10.871642 4.021598 2.529869 13.755247 -59.059021 -77.870003 -82.636490 1.365266 34.407890 16.939085 4.432264 -3.359207 7.042682 5.330227 1.478385 -31.684616 11.306865 -71.415657 58.282093 1.727738 15.715649 -35.880665 -1.467637 -4.109633 12.038236 8.017235 10.243720 4.574261 -1.871636 18.784040 -11.110495 0.071351 -0.680443 -0.419847 -6.369884 -5.575627 -1.353878 2.720850 -11.725594 5.946620 -0.006645 0.315390 
-24.429449 50.048599 -13.369173 -3.756893 -2.400618 24.446400 0.000000 0.000000 0.000000 1.405877 1.939802 -3.468775 -0.457534 1.839934 -12.525826 15.365297 -0.628084 -8.320880 -10.842229 3.945394 2.318105 12.150436 -59.255386 -75.357819 -82.408844 1.391468 33.793636 16.854055 4.247494 -3.380427 7.225297 5.453948 1.264722 -31.353809 11.675065 -69.510139 56.685059 1.255125 15.643387 -35.879391 -1.032396 -4.242764 12.300539 8.142978 10.317209 3.864130 -1.755922 18.328693 -10.826826 0.088651 -0.747293 -0.410152 -6.192182 -5.465934 -1.372269 2.690219 -11.931086 5.790948 -0.051733 0.331741 
-24.496534 50.079552 -13.249865 -3.689804 -2.676714 24.843010 0.000000 0.000000 0.000000 1.288054 2.076140 -3.527673 -0.676158 1.944799 -12.526785 14.898647 -0.715174 -8.252647 -10.555278 4.477531 2.254032 9.650360 -60.026085 -73.001434 -82.591194 1.405309 33.671574 16.760868 4.173656 -3.397606 7.153325 5.729333 1.138606 -30.820337 12.025756 -68.253906 56.206150 0.894236 16.921953 -35.084877 -1.956909 -3.937464 12.301457 8.514318 10.582318 3.537721 -1.692544 17.869232 -10.650967 0.080155 -0.740310 -0.371513 -5.949366 -5.478638 -1.429624 2.902796 -12.418838 5.566451 -0.047171 0.230820 
-24.526194 50.064911 -13.152057 -3.573796 -2.671626 25.077532 0.000000 0.000000 0.000000 1.160138 2.115217 -3.488636 -0.742227 1.698212 -12.329720 14.361460 -0.241577 -8.310637 -10.752022 4.235451 2.146513 7.714615 -60.134808 -70.830521 -82.851982 1.383627 33.370010 16.508736 4.289831 -3.376632 7.146893 5.531294 1.041277 -30.117016 12.537293 -67.094276 55.742950 0.678214 17.335754 -34.880718 -1.934827 -3.950029 12.348609 8.533708 10.506993 3.332122 -1.604540 17.735497 -10.560791 0.079729 -0.924356 -0.303119 -5.988880 -5.578408 -1.448925 3.000250 -12.578903 5.390584 -0.031623 0.205166 
-24.569185 50.088326 -13.072682 -3.460521 -2.726967 25.372396 0.000000 0.000000 0.000000 1.113029 2.046834 -3.556951 -1.019207 1.707433 -12.378523 14.577415 -0.251284 -8.242279 -11.040014 3.709908 2.075351 6.589075 -59.992931 -68.995621 -83.114738 1.374461 32.946129 16.578279 4.560866 -3.341786 7.051152 5.737145 0.982649 -29.641853 12.955111 -66.083115 55.640999 0.492845 17.402163 -34.837189 -2.150087 -3.870959 12.426951 8.641100 10.566818 2.895140 -1.605919 17.231735 -10.288356 0.087508 -0.855026 -0.273504 -5.932514 -5.584152 -1.491800 3.033660 -12.836331 5.312508 -0.036287 0.193412 
-24.596621 50.090061 -13.045316 -3.245909 -2.839604 25.462996 0.000000 0.000000 0.000000 1.052011 2.085821 -3.556950 -1.227415 1.613184 -12.192216 14.551774 -0.212697 -8.105558 -11.279584 3.419425 2.015612 5.700786 -59.570129 -67.675362 -83.289589 1.331576 32.627670 16.512125 4.379966 -3.369951 6.901793 5.439204 0.963709 -28.750916 13.565706 -65.594513 55.683403 0.412573 17.709028 -34.644753 -2.247867 -3.849229 12.263537 8.720226 10.628658 2.748325 -1.653928 17.180462 -10.309134 0.075245 -0.731256 -0.419923 -5.883032 -5.494962 -1.519004 3.041129 -12.799357 5.078203 -0.058248 0.155441 
-24.621319 50.108444 -13.030931 -3.257395 -2.844946 25.609747 0.000000 0.000000 0.000000 1.191852 2.046877 -3.537083 -1.212979 1.594211 -12.172696 14.373505 -0.058007 -8.115241 -11.399481 3.284803 2.129477 4.620441 -59.567383 -66.259323 -83.593475 1.383495 33.022160 16.306395 4.815858 -3.313467 6.927359 5.580939 1.080350 -28.156431 13.801311 -65.215393 55.690044 0.415020 17.332943 -34.815460 -2.183901 -3.870965 12.087183 8.827490 10.685577 2.990619 -1.710536 17.000393 -10.389212 0.083217 -0.521990 -0.380973 -5.887184 -5.632346 -1.585397 3.146929 -13.207068 5.117142 -0.023942 0.166719 
-24.634192 50.108002 -13.031828 -3.080451 -2.992200 25.711208 0.000000 0.000000 0.000000 1.149190 1.968984 -3.498053 -1.337350 1.766169 -12.154016 14.430270 -0.183720 -8.046927 -11.278326 3.511848 2.092150 2.665009 -60.027275 -64.320419 -83.857506 1.381434 32.993771 16.591259 4.791097 -3.322477 7.094632 5.878297 1.012439 -27.611275 13.856816 -64.704018 55.630119 0.383424 17.277132 -34.767658 -2.315508 -3.826808 11.819505 8.961579 10.775904 3.011676 -1.800133 16.851536 -10.398322 0.043858 -0.551991 -0.566456 -5.805773 -5.463281 -1.674450 3.070146 -13.396360 5.410171 -0.052234 0.280526 
-24.640202 50.119434 -13.058502 -2.988331 -3.017357 25.760983 0.000000 0.000000 0.000000 1.200285 1.959337 -3.449254 -1.410794 1.775062 -12.251922 14.501391 -0.821845 -8.077016 -11.199084 2.947954 2.091552 1.500998 -60.212715 -62.571362 -83.886436 1.432642 33.182587 16.409979 4.880847 -3.296936 7.128738 5.990026 1.042272 -27.150600 14.251976 -64.372993 55.389793 0.282772 17.712179 -34.093899 -2.581515 -3.737417 12.149497 8.921731 10.803235 2.173694 -1.830641 16.731949 -10.007298 0.014370 -0.544030 -0.615086 -5.835272 -5.496439 -1.756209 3.094129 -13.470677 5.341393 -0.027320 0.319483 
-24.635967 50.126404 -13.084296 -2.935111 -3.059569 25.830254 0.000000 0.000000 0.000000 1.318899 1.969206 -3.390359 -1.321488 1.593976 -12.211742 13.387379 -0.599244 -8.223123 -11.452036 2.530537 2.175266 0.539568 -60.071705 -61.068913 -83.988503 1.453732 33.060341 16.527636 5.303420 -3.242755 7.138874 5.963468 1.138602 -26.483723 14.509788 -64.030083 55.175419 0.192734 17.694752 -33.946007 -2.745216 -3.686076 11.870596 8.992607 10.781751 2.506786 -1.912032 16.644264 -10.135280 0.020886 -0.433017 -0.654231 -5.890990 -5.589047 -1.795276 3.201412 -13.378743 5.643411 -0.012489 0.416319 
-24.624262 50.119648 -13.109144 -2.980863 -2.909658 25.846203 0.000000 0.000000 0.000000 1.447188 1.813338 -3.331499 -0.503528 1.651305 -12.202253 10.230299 -0.647570 -8.223232 -11.446915 2.509593 2.280956 -1.548184 -60.278122 -58.825756 -83.782036 1.463171 32.841026 16.625217 5.302404 -3.245889 7.064336 6.057249 1.275712 -25.628851 15.249945 -63.538128 54.508072 0.142220 17.589369 -34.024174 -2.896591 -3.654135 12.164236 8.826723 10.736163 2.125863 -1.911124 16.675558 -9.969043 0.023105 -0.464135 -0.576109 -5.981450 -5.603092 -1.813956 3.112810 -13.484867 5.741117 -0.022961 0.453815 
-24.616432 50.140118 -13.122176 -3.028487 -2.989003 25.838461 0.000000 0.000000 0.000000 1.580404 1.715881 -3.311985 0.229680 1.936431 -12.370300 6.111535 -0.714888 -8.408884 -11.093174 3.220914 2.419436 -5.173776 -61.084610 -55.893188 -83.931458 1.508229 33.203003 16.561951 5.513237 -3.217748 7.222137 6.481026 1.354357 -24.926060 15.825669 -63.172379 53.818699 0.125609 17.081440 -34.037304 -2.994890 -3.623077 12.194552 8.944014 10.906359 2.047272 -2.017671 16.523125 -9.802508 0.085242 -0.617571 -0.547039 -5.943345 -5.638648 -1.795623 3.200795 -13.388497 5.448305 -0.015887 0.384678 
-24.596537 50.131672 -13.147622 -3.151570 -2.975281 26.033445 0.000000 0.000000 0.000000 1.897692 1.725369 -3.458402 0.100241 1.820176 -12.623433 4.642821 -0.608311 -8.604064 -11.371903 4.057849 2.775466 -8.929488 -61.494686 -53.557518 -84.221420 1.497317 33.515644 16.714766 5.564891 -3.209888 7.038188 5.760004 1.713538 -23.148876 16.771578 -63.080910 53.390980 0.113131 16.589144 -34.340874 -3.295292 -3.533015 12.240708 9.011527 10.949227 2.066886 -2.018229 16.590363 -9.732493 0.080447 -0.770876 -0.420275 -5.931352 -5.635782 -1.804772 3.190502 -13.496249 5.672580 -0.012158 0.436895 
-24.592339 50.142567 -13.177400 -3.211109 -2.851245 26.079237 0.000000 0.000000 0.000000 2.084738 1.530381 -3.477668 -0.134290 1.694394 -12.905915 5.246885 -0.328002 -8.935735 -11.244889 5.390042 3.004239 -15.398296 -62.360725 -48.809223 -84.309753 1.529636 34.242229 16.743946 5.851964 -3.170326 7.045607 5.588148 1.897685 -21.926533 17.612617 -61.788460 52.511166 0.157067 15.229521 -34.824181 -3.247184 -3.547726 12.313642 8.876918 10.836016 2.065372 -1.973781 16.619917 -9.665153 0.090034 -0.690616 -0.371131 -6.028783 -5.729620 -1.761377 3.186430 -13.454339 5.488053 -0.050115 0.373494 
-24.577950 50.123692 -13.175536 -3.423486 -2.818503 25.980762 0.000000 0.000000 0.000000 2.370237 1.540301 -3.370284 -0.536219 1.608345 -12.963931 6.559507 -0.472581 -9.033537 -11.533133 6.075179 3.322999 -21.050463 -63.000011 -44.841312 -84.048241 1.518552 34.515068 16.823576 5.552265 -3.205227 7.355489 5.947797 2.101506 -21.302969 18.387821 -60.668480 51.179367 0.058518 15.029739 -35.235405 -3.550246 -3.458806 12.614594 8.974165 11.006836 2.076526 -1.998399 16.482496 -9.698328 0.089215 -1.111933 -0.195600 -5.906410 -5.640243 -1.718252 3.094091 -13.536449 5.214585 -0.026062 0.268662 
-24.578863 50.124794 -13.155810 -3.521851 -2.850717 25.736992 0.000000 0.000000 0.000000 2.533341 1.521129 -3.155258 -0.956756 1.398978 -12.962683 7.998740 0.173438 -9.365251 -11.129565 7.371284 3.540995 -26.187639 -63.492153 -39.825294 -83.675148 1.618492 35.211864 16.734253 6.834829 -3.041723 7.432762 5.760339 2.285134 -19.913021 19.655342 -59.472908 50.032196 -0.038817 14.539562 -35.354122 -3.681376 -3.423235 12.771068 9.061865 11.273530 2.037775 -2.184815 16.649708 -9.918238 0.104617 -0.791988 -0.195515 -5.788768 -5.504717 -1.683779 3.040504 -13.386406 5.449015 -0.041748 0.324954 
-24.587870 50.122959 -13.119781 -3.505555 -2.915634 25.601456 0.000000 0.000000 0.000000 2.527495 1.482222 -3.086925 -1.177651 1.304116 -12.903659 8.957706 0.337184 -9.423951 -11.116603 8.574582 3.611170 -34.047344 -63.682880 -33.251472 -83.647209 1.662737 35.311134 16.209486 7.215318 -3.002653 8.339559 6.458575 2.137958 -19.430666 20.109993 -57.590359 48.837612 -0.084730 13.974609 -34.950771 -4.297802 -3.238443 12.868221 9.129538 11.277590 2.065403 -2.091272 16.140730 -9.896079 0.107333 -0.995808 -0.244267 -5.637708 -5.358161 -1.625106 2.952650 -13.321518 5.136739 -0.037493 0.182802 
-24.591478 50.129276 -13.076720 -3.548061 -2.980432 25.476212 0.000000 0.000000 0.000000 2.596050 1.579498 -3.243377 -0.987149 1.038147 -12.765786 8.284360 1.193979 -9.601575 -11.082407 9.030374 3.703262 -40.137188 -63.480091 -27.582247 -83.258911 1.713784 35.390594 15.944754 7.500510 -2.978156 8.372803 5.821110 2.241467 -17.973532 21.926395 -55.911106 47.765999 -0.056951 12.870053 -35.229218 -4.531825 -3.169889 12.942241 9.147479 11.262709 2.045875 -1.983631 16.494020 -9.892365 0.144225 -1.269629 -0.234685 -5.599527 -5.355555 -1.606644 3.002337 -13.272803 5.107226 -0.009877 0.181623 
